<svg width="61" height="44" viewBox="0 0 61 44" fill="none" xmlns="http://www.w3.org/2000/svg">
<path d="M61 23.5C61 34.8218 47.3447 44 30.5 44C13.6553 44 0 34.8218 0 23.5C0 12.1782 13.6553 3 30.5 3C47.3447 3 61 12.1782 61 23.5Z" fill="#EA4949"/>
<path d="M61 23.5C61 34.8218 47.3447 44 30.5 44C13.6553 44 0 34.8218 0 23.5C0 12.1782 13.6553 3 30.5 3C47.3447 3 61 12.1782 61 23.5Z" fill="#3162B0"/>
<path d="M23.7721 38.875H28.7059V44H23.7721V38.875Z" fill="#F0F0F0"/>
<path d="M0 22H0.802632V25H0V22Z" fill="#F0F0F0"/>
<path d="M60.1974 22H61V25H60.1974V22Z" fill="#F0F0F0"/>
<path d="M32.2942 38.875H37.228V44H32.2942V38.875Z" fill="#F0F0F0"/>
<path d="M61 20.5C61 31.8218 47.3447 41 30.5 41C13.6553 41 0 31.8218 0 20.5C0 9.17816 13.6553 0 30.5 0C47.3447 0 61 9.17816 61 20.5Z" fill="#D9D9D9"/>
<path d="M61 20.5C61 31.8218 47.3447 41 30.5 41C13.6553 41 0 31.8218 0 20.5C0 9.17816 13.6553 0 30.5 0C47.3447 0 61 9.17816 61 20.5Z" fill="#EA4949"/>
<path d="M61 20.5C61 31.8218 47.3447 41 30.5 41C13.6553 41 0 31.8218 0 20.5C0 9.17816 13.6553 0 30.5 0C47.3447 0 61 9.17816 61 20.5Z" fill="#3D7BDE"/>
<path d="M23.7721 0H28.7059V5.125H23.7721V0Z" fill="white"/>
<path d="M32.2941 0H37.2279V5.125H32.2941V0Z" fill="white"/>
<path d="M23.7721 35.875H28.7059V41H23.7721V35.875Z" fill="white"/>
<path d="M32.2941 35.875H37.2279V41H32.2941V35.875Z" fill="white"/>
<path d="M61 15.9779V19.2941H53.375V15.9779H61Z" fill="white"/>
<path d="M61 21.7059V25.0221H53.375V21.7059H61Z" fill="white"/>
<path d="M7.625 15.9779V19.2941H0V15.9779H7.625Z" fill="white"/>
<path d="M7.625 21.7059V25.0221H0V21.7059H7.625Z" fill="white"/>
<path d="M51.1324 20.5C51.1324 28.3254 41.8949 34.6691 30.5 34.6691C19.1051 34.6691 9.86765 28.3254 9.86765 20.5C9.86765 12.6746 19.1051 6.33088 30.5 6.33088C41.8949 6.33088 51.1324 12.6746 51.1324 20.5Z" fill="white"/>
<path d="M29.6654 29.1878V11.6477H31.3372V29.1878H29.6654ZM35.2924 16.9098C35.1701 16.2155 34.674 15.6765 33.8041 15.2928C32.9342 14.9091 31.8673 14.7172 30.6032 14.7172C29.679 14.7172 28.8703 14.8177 28.1771 15.0187C27.4907 15.2197 26.9538 15.496 26.5664 15.8478C26.1859 16.1995 25.9956 16.5992 25.9956 17.0468C25.9956 17.4213 26.1281 17.7434 26.3932 18.0129C26.665 18.2778 27.0116 18.4993 27.4329 18.6775C27.8543 18.851 28.296 18.9949 28.7581 19.1091C29.2202 19.2187 29.645 19.3078 30.0324 19.3763L32.1527 19.76C32.6964 19.8559 33.3012 19.9884 33.9672 20.1574C34.64 20.3264 35.2822 20.5571 35.8938 20.8494C36.5123 21.1372 37.0219 21.5072 37.4229 21.9594C37.8239 22.4116 38.0243 22.9666 38.0243 23.6243C38.0243 24.3826 37.7287 25.0677 37.1375 25.6798C36.553 26.2919 35.6967 26.7784 34.5686 27.1392C33.4473 27.5001 32.0847 27.6805 30.4809 27.6805C28.9858 27.6805 27.6912 27.5183 26.597 27.194C25.5097 26.8697 24.6534 26.4175 24.0282 25.8374C23.4098 25.2573 23.0598 24.5836 22.9782 23.8162H25.5878C25.6558 24.346 25.9208 24.7845 26.383 25.1317C26.8519 25.4743 27.4431 25.7301 28.1567 25.8991C28.8771 26.0635 29.6518 26.1457 30.4809 26.1457C31.4459 26.1457 32.3124 26.0407 33.0803 25.8305C33.8483 25.6159 34.4565 25.319 34.905 24.9398C35.3535 24.5561 35.5778 24.1085 35.5778 23.5969C35.5778 23.131 35.3841 22.7519 34.9968 22.4596C34.6094 22.1672 34.0997 21.9297 33.4677 21.747C32.8357 21.5643 32.1527 21.4044 31.4187 21.2674L28.8499 20.7741C27.2189 20.4589 25.9276 20.009 24.9762 19.4243C24.0248 18.8396 23.5491 18.0745 23.5491 17.129C23.5491 16.3434 23.8651 15.6582 24.4971 15.0735C25.1359 14.4843 25.9922 14.0275 27.066 13.7032C28.1465 13.3743 29.3528 13.2099 30.6848 13.2099C32.0304 13.2099 33.2264 13.372 34.273 13.6964C35.3196 14.0161 36.1487 14.4546 36.7603 15.0119C37.3787 15.5691 37.7049 16.2018 37.7389 16.9098H35.2924Z" fill="#3D7BDE"/>
</svg>
